<?xml version="1.0" standalone="no"?><!-- Generator: Gravit.io --><svg xmlns="http://www.w3.org/2000/svg" xmlns:xlink="http://www.w3.org/1999/xlink" style="isolation:isolate" viewBox="268.51388888888886 638.0720208716533 26.486111111111143 31.855958256693498" width="26.486111111111143" height="31.855958256693498"><path d=" M 287.49301645198426 662.0821505931933 C 287.4848184706872 662.4756536954548 287.47662048939003 662.8691567977162 287.47662048939003 663.2626598999776 C 287.47662048939003 665.3367491681473 287.46842250809294 667.410838436317 287.4848184706872 669.4849277044866 C 287.4848184706872 669.8046489750741 287.4274326016074 669.9358166758279 287.06672142453436 669.9276186945308 C 284.54174318502345 669.9112227319365 282.01676494551253 669.9112227319365 279.4917867060016 669.9276186945308 C 279.1720654354142 669.9276186945308 279.0654916785517 669.8374409002625 279.0736896598488 669.509521648378 C 279.09008562244304 668.3618042667821 279.08188764114595 667.2140868851862 279.0736896598488 666.0745674848874 C 279.0736896598488 665.967993728025 279.20485736060266 665.7630441955972 278.93432397779793 665.7548462143001 C 278.8769381087181 665.7548462143001 278.82775022093546 665.7630441955972 278.7703643518556 665.7630441955972 C 278.66379059499315 665.7138563078145 278.5654148194278 665.7220542891116 278.4998309690509 665.8368260272712 C 277.48328128820884 665.9433997841337 276.45853362606965 666.0253795971048 275.45018192652475 665.7712421768942 C 273.663022003754 665.320353205553 272.3841369214043 664.2628136182254 271.59713071688145 662.5822274523172 C 271.0888558764604 661.483697958504 270.4166214100971 660.467148277662 269.63781318687137 659.532578409791 C 269.39187374795796 659.2374510830949 268.9983706456965 659.1226793449354 268.7360352441889 658.8275520182393 C 268.6376594686235 658.7127802800796 268.47369984268124 658.6226024858114 268.52288773046394 658.4668408411662 C 268.57207561824663 658.2782872713327 268.77702515067443 658.2864852526297 268.9409847766167 658.2700892900356 C 270.5805810360394 658.1307236079847 271.7446943802295 658.9095318312104 272.5562945286437 660.254000763937 C 273.30231082668104 661.483697958504 274.27787060103753 662.3936738824835 275.687923384141 662.7625830408537 C 276.68807710238883 663.0249184423614 277.68823082063665 662.9675325732816 278.6719885762903 662.6642072652884 C 278.90153205260947 662.5904254336143 279.0245017720662 662.4920496580489 279.0490957159575 662.213318293947 C 279.1228775476315 661.1967686131051 279.33602506135645 660.2130108574514 280.0410514529082 659.3522228212545 C 279.7705180701035 659.3030349334718 279.55737055637854 659.2538470456892 279.33602506135645 659.2210551205008 C 277.5980530263684 658.958719718993 275.9830507108371 658.3602670843038 274.5811959090307 657.2863315343819 C 273.0153814812821 656.0894262650035 272.0398217069256 654.4908199120663 271.7364963989324 652.5315023820561 C 271.47416099742475 650.8181242909595 271.5725367729901 649.0965482185657 271.79388226801217 647.383170127469 C 271.96603987525157 646.0632951386337 272.3349490336216 644.8090040001754 273.2859148640868 643.8252462445218 C 273.62203209726846 643.480931030043 273.6466260411598 643.2021996659412 273.49906237781175 642.7677066571941 C 272.99898551868785 641.308465986308 273.1383512007387 639.8410273341246 273.58924017208 638.3817866632385 C 273.6712199850511 638.1112532804337 273.7941897045078 638.0292734674626 274.0893170312039 638.1030552991367 C 275.1960445063142 638.3735886819414 276.048634561214 639.0212292044133 276.8192448031426 639.8082354089363 C 277.1963519428099 640.1853425486034 277.5160732133973 640.6116375760533 277.8275965026876 641.0379326035032 C 277.9177742969558 641.1609023229599 277.98335814733275 641.2264861733369 278.1391197919779 641.1035164538802 C 278.72937444537007 640.6362315199447 279.4425988182189 640.4886678565966 280.1558231910678 640.3820940997342 C 282.2217144779404 640.0869667730381 284.29580374611004 640.078768791741 286.36169503298265 640.3738961184371 C 287.05032546194013 640.4722718940025 287.74715387219476 640.5952416134592 288.32101256299273 641.0297346222061 C 288.59154594579746 641.234684154634 288.69811970265994 641.1199124164743 288.84568336600796 640.9067649027494 C 289.39494811291456 640.1033627356323 290.06718257927787 639.4147323066748 290.85418878380074 638.849071597174 C 291.35426564292464 638.488360420101 291.9117283711284 638.2424209811876 292.5183789871148 638.0948573178396 C 292.7807143886224 638.0292734674626 292.8872881454849 638.1030552991367 292.969267958456 638.340796756753 C 293.52673068665973 639.9148091657987 293.60871049963083 641.4888215748445 292.9856639210502 643.0628339838903 C 292.9118820893762 643.259585535021 292.8626942015935 643.398951217072 293.04304979013 643.5711088243113 C 294.05140148967496 644.5220746547765 294.52688440490755 645.7353758867492 294.72363595603827 647.0716468381787 C 294.96137741365453 648.6948471350072 295.10074309570547 650.3262454131327 294.9121895258719 651.9740396538525 C 294.60066623658156 654.7449573322768 293.1906134534781 656.7616607313666 290.74761502693826 658.0815357202019 C 290.65743723267 658.0733377389048 290.583655400996 658.0979316827962 290.55086347580755 658.1881094770645 C 290.4852796254306 658.2209014022529 290.41969577505375 658.2536933274413 290.3623099059739 658.2782872713327 C 290.14916239224897 658.2864852526297 289.9688068037125 658.376663046898 289.82124314036446 658.516028728949 C 289.75565928998753 658.5406226728403 289.6818774583135 658.5570186354346 289.61629360793665 658.5816125793259 C 289.51791783237127 658.5570186354346 289.45233398199434 658.5980085419201 289.4113440755088 658.6799883548912 C 289.37035416902324 658.6881863361883 289.32116628124055 658.7045822987826 289.280176374755 658.7127802800796 C 288.95225712287044 658.7619681678624 288.6243378709859 658.8029580743479 288.34560650688405 658.9997096254787 C 288.3046166003985 659.0079076067758 288.2554287126158 659.0161055880728 288.21443880613026 659.02430356937 C 287.97669734851394 659.0161055880728 287.73895589089767 659.0325015506671 287.5340063584698 659.1800652140151 C 287.3536507699333 659.2046591579065 287.1814931626939 659.2292531017978 287.00113757415744 659.2538470456892 C 286.8617718921065 659.2620450269862 286.7060102474614 659.2456490643921 286.5830405280047 659.2948369521747 C 286.45187282725084 659.3522228212545 286.5092586963307 659.4342026342257 286.62403043449024 659.4669945594142 L 286.6322284157874 659.4751925407112 C 286.64042639708447 659.5899642788709 286.69781226616425 659.671944091842 286.8043860230267 659.7047360170304 C 286.86996987340365 659.8359037177843 286.9355537237806 659.967071418538 287.00113757415744 660.0900411379947 C 287.01753353675167 660.2621987452342 287.05032546194013 660.4261583711764 287.19788912528816 660.5409301093359 C 287.2142850878824 660.61471194101 287.2306810504766 660.6802957913869 287.24707701307085 660.7540776230609 C 287.2880669195564 660.9836210993801 287.2880669195564 661.2131645756992 287.41923462031025 661.4181141081272 C 287.42743260160734 661.4673019959098 287.4356305829045 661.5164898836924 287.44382856420157 661.557479790178 C 287.39464067641893 661.6558555657434 287.41923462031025 661.7460333600117 287.49301645198426 661.8280131729828 C 287.4848184706872 661.918190967251 287.4848184706872 662.0001707802221 287.49301645198426 662.0821505931933 Z " fill="rgb(22,24,48)" stroke-width="1.5000000000000002" stroke="rgba(0,0,0,0)" stroke-linejoin="miter" stroke-linecap="butt"/></svg>