<?xml version="1.0" standalone="no"?><!-- Generator: Gravit.io --><svg xmlns="http://www.w3.org/2000/svg" xmlns:xlink="http://www.w3.org/1999/xlink" style="isolation:isolate" viewBox="372.9407012897731 642.119499797575 30.11859742045408 24.477479774062544" width="30.11859742045408" height="24.477479774062544"><path d=" M 403.05929871022715 645.0163153846823 C 401.95122202968594 645.5086893047529 400.7612399360546 645.8410181647623 399.5100641429881 645.9888244849365 C 400.7857174158287 645.2243739627619 401.76575804832095 644.0136801554756 402.2280058394388 642.5713917318654 C 401.0333165381586 643.278414320724 399.7115326303592 643.7943242790388 398.3040775433507 644.0701666472619 C 397.1762305906842 642.8698286968031 395.5701313408938 642.119499797575 393.7917482911552 642.119499797575 C 390.37902274573304 642.119499797575 387.6140089727937 644.8854550120441 387.6140089727937 648.2981805574663 C 387.6140089727937 648.782081503769 387.6676711399907 649.2546851517143 387.7731125913252 649.7065770860047 C 382.6375490464209 649.4486221068472 378.08473780844525 646.9886353895539 375.0363501350447 643.2501710748307 C 374.5053771122535 644.1633693587092 374.2003500566075 645.2243739627619 374.2003500566075 646.3569281230772 C 374.2003500566075 648.501531927897 375.2914807896128 650.3919465196784 376.9484178820109 651.5009646417494 C 375.9363682375064 651.4680141882073 374.9836294093775 651.1912303784545 374.1504536555296 650.7280411458069 C 374.14951221399986 650.7534600671107 374.14951221399986 650.780761871474 374.14951221399986 650.8052393512481 C 374.14951221399986 653.7999648574518 376.2790529543433 656.2976092359359 379.10620186824747 656.8652984783881 C 378.5884090268731 657.0055732663242 378.0423729396055 657.0818300302357 377.47844946327234 657.0818300302357 C 377.0792782546492 657.0818300302357 376.6932872274428 657.043230927515 376.31671061553413 656.9716813712523 C 377.1018728513637 659.4250779978372 379.3848685610599 661.2119340213438 382.08774719303426 661.2627718639515 C 379.9742109586969 662.9197089563495 377.3099314294432 663.9091640041395 374.41499872539544 663.9091640041395 C 373.91603471461644 663.9091640041395 373.4236607945459 663.8799793167166 372.9407012897731 663.8225513834005 C 375.6746474922299 665.5736326287757 378.922620769942 666.5969795716376 382.41254452080545 666.5969795716376 C 393.77762666820865 666.5969795716376 399.9939650892907 657.1816228323914 399.9939650892907 649.0155590031522 C 399.9939650892907 648.7481896086971 399.9864335570526 648.480820214242 399.97513625869533 648.2153337028464 C 401.1830057413923 647.3445002878076 402.22988872249834 646.2571353209214 403.05929871022715 645.0163153846823 Z " fill="rgb(22,24,48)" stroke-width="1" stroke="rgba(0,0,0,0)" stroke-linejoin="miter" stroke-linecap="butt"/></svg>